# xmcd
# 
# Track frame offsets:
#     150
#     13514
#     25549
#     47557
# 
# Disc length: 809
# 
# Revision: 0
# Processed by: cddbd v1.5.2PL0 Copyright (c) Steve Scherf et al.
# Submitted via: fre:ac v1.0.17
# 
DISCID=1f032704
DTITLE=Outcast - The Source of All Creation
DYEAR=2002
DGENRE=Death Progressive Metal
TTITLE0=No Void of Insanity
TTITLE1=Shell Shock
TTITLE2=Remains
TTITLE3=Wicked Messiah
EXTD=
EXTT0=
EXTT1=
EXTT2=
EXTT3=
PLAYORDER=
